<svg xmlns="http://www.w3.org/2000/svg" viewBox="0 0 64 64" id="learn">
  <path fill="#2d3142" d="M45 33.13v-.42a9.708 9.708 0 0 0-9-9.68c-.23-.02-.47-.03-.71-.03h-6.58c-.24 0-.48.01-.71.03a9.708 9.708 0 0 0-9 9.68V37h26Z"></path>
  <path fill="#247ba0" d="M35.111 33 32 28.714 28.889 33 28 23h8l-.889 10z"></path>
  <path fill="#f71735" d="m32 29 2-6h-4l2 6z"></path>
  <path fill="#41ead4" d="M34 37h-4l.21-1.19.63-3.58a1.162 1.162 0 1 1 2.32 0l.63 3.58Z"></path>
  <path fill="#ffbf69" d="M38.92 10.88v.55A2.25 2.25 0 0 1 41 13.82a2.6 2.6 0 0 1-.61 1.7 1.936 1.936 0 0 1-1.47.7 6.213 6.213 0 0 1-3.56 5.44l-1.9.99a3.22 3.22 0 0 1-2.92 0l-1.9-.99a6.837 6.837 0 0 1-2.61-2.31 5.727 5.727 0 0 1-.95-3.13 2.254 2.254 0 0 1-2.08-2.4 2.25 2.25 0 0 1 2.08-2.39V11l8.52-2h2.41Z"></path>
  <path fill="#2d3142" d="M40 11a5.036 5.036 0 0 1-3.725-1.7l-1.366-1.5a9.5 9.5 0 0 1-7.023 3.2H24V8.6C24 4.624 26.931 3 30.547 3h2.906C37.069 3 40 4.624 40 8.6Z"></path>
  <path fill="#4f5d75" d="M53.76 37h4.13A3.107 3.107 0 0 1 61 40.11V61H3V40.11A3.107 3.107 0 0 1 6.11 37h47.65Z"></path>
  <path fill="#41ead4" d="M32 61a16.461 16.461 0 0 0-22 0V37.215a16.461 16.461 0 0 1 22 0Z"></path>
  <path fill="#247ba0" d="M54 61a16.461 16.461 0 0 0-22 0V37.215a16.461 16.461 0 0 1 22 0Z"></path>
  <path fill="#1b98e0" d="M60.923 9.91c-5.145-.843-5.99-1.688-6.833-6.833a.091.091 0 0 0-.18 0c-.843 5.145-1.688 5.99-6.833 6.833a.091.091 0 0 0 0 .18c5.145.843 5.99 1.688 6.833 6.833a.091.091 0 0 0 .18 0c.843-5.145 1.688-5.99 6.833-6.833a.091.091 0 0 0 0-.18zm-44 11c-5.145-.843-5.99-1.688-6.833-6.833a.091.091 0 0 0-.18 0c-.843 5.145-1.688 5.99-6.833 6.833a.091.091 0 0 0 0 .18c5.145.843 5.99 1.688 6.833 6.833a.091.091 0 0 0 .18 0c.843-5.145 1.688-5.99 6.833-6.833a.091.091 0 0 0 0-.18z"></path>
  <path d="M57.89 36h-3.8a17.372 17.372 0 0 0-8.116-3.761 10.725 10.725 0 0 0-9.384-10.145 7.223 7.223 0 0 0 3.275-5.037 3.019 3.019 0 0 0 1.281-.884A3.588 3.588 0 0 0 42 13.82a3.521 3.521 0 0 0-1.057-2.536A1 1 0 0 0 41 11V8.6C41 4.468 38.179 2 33.453 2h-2.906C25.821 2 23 4.468 23 8.6V11a1 1 0 0 0 .057.284A3.521 3.521 0 0 0 22 13.82a3.388 3.388 0 0 0 2.135 3.236 6.827 6.827 0 0 0 1.056 2.838 7.63 7.63 0 0 0 2.229 2.2 10.726 10.726 0 0 0-9.4 10.145A17.372 17.372 0 0 0 9.907 36H6.11A4.115 4.115 0 0 0 2 40.11V61a1 1 0 0 0 1 1h58a1 1 0 0 0 1-1V40.11A4.115 4.115 0 0 0 57.89 36ZM9 60H4V40.11A2.112 2.112 0 0 1 6.11 38H9Zm27.9-35.842a8.737 8.737 0 0 1 7.066 7.862 17.463 17.463 0 0 0-3.966.222V31h-1a1 1 0 0 0-1 1v.724a17.438 17.438 0 0 0-2.021.752.983.983 0 0 0 .128-.388ZM25 8.6c0-4 3.476-4.6 5.547-4.6h2.906C35.524 4 39 4.6 39 8.6v1.268a4.146 4.146 0 0 1-1.984-1.238l-1.367-1.5a1.033 1.033 0 0 0-1.48 0A8.445 8.445 0 0 1 27.886 10H25Zm2.1 15.56.794 8.928a.983.983 0 0 0 .128.388A17.438 17.438 0 0 0 26 32.724V32a1 1 0 0 0-1-1h-1v1.242a17.463 17.463 0 0 0-3.967-.222 8.737 8.737 0 0 1 7.067-7.86ZM13.01 60a15.391 15.391 0 0 1 15.98 0ZM31 58.926a17.385 17.385 0 0 0-20 0V37.668a15.4 15.4 0 0 1 20 0Zm-1.439-25.2-.084.477c-.139-.077-.279-.155-.419-.228a.986.986 0 0 0 .503-.249ZM29.093 24h.187l1.544 4.632-1.176 1.619Zm.007-3.228a5.838 5.838 0 0 1-2.231-1.966 4.753 4.753 0 0 1-.789-2.586 1 1 0 0 0-1-1 1.273 1.273 0 0 1-1.08-1.4 1.281 1.281 0 0 1 1.08-1.39.981.981 0 0 0 .8-.43h2.006a10.363 10.363 0 0 0 6.043-2h1.631a6.224 6.224 0 0 0 2.4 1.618.985.985 0 0 0 .962.812A1.281 1.281 0 0 1 40 13.82a1.6 1.6 0 0 1-.368 1.048.955.955 0 0 1-.712.352 1 1 0 0 0-1 1 5.246 5.246 0 0 1-3.02 4.553l-1.893.986a2.293 2.293 0 0 1-2 0Zm5.861 13.192c-.147.077-.293.158-.438.24l-.089-.5a.965.965 0 0 0 .527.26Zm-.609-3.713-1.176-1.619L34.72 24h.187ZM32.612 24 32 25.838 31.388 24ZM32 35.923c-.231-.188-.458-.384-.7-.558l.528-3.01a.563.563 0 0 1 .163-.355c.035.012.148.124.184.4l.521 2.962c-.238.178-.465.373-.696.561ZM35.01 60a15.391 15.391 0 0 1 15.98 0ZM53 58.926a17.385 17.385 0 0 0-20 0V37.668a15.4 15.4 0 0 1 20 0ZM60 60h-5V38h2.89A2.112 2.112 0 0 1 60 40.11Z"></path>
  <path d="M18 39h10v2H18zM14 45h14v2H14zM14 51h14v2H14zM40 39h10v2H40zM36 45h14v2H36zM36 51h14v2H36zM61.087 8.923c-4.728-.774-5.232-1.279-6.007-6.007a1.091 1.091 0 0 0-2.154 0c-.775 4.729-1.279 5.234-6.01 6.008a1.091 1.091 0 0 0 0 2.154c4.728.774 5.232 1.279 6.007 6.007a1.091 1.091 0 0 0 2.154 0c.775-4.729 1.279-5.234 6.01-6.008a1.092 1.092 0 0 0 0-2.154zM54 13.064A4.93 4.93 0 0 0 50.937 10 4.93 4.93 0 0 0 54 6.936 4.929 4.929 0 0 0 57.064 10 4.927 4.927 0 0 0 54 13.064zM2.916 22.077c4.728.774 5.232 1.279 6.007 6.007a1.091 1.091 0 0 0 2.154 0c.775-4.729 1.279-5.234 6.01-6.008a1.092 1.092 0 0 0 0-2.154c-4.728-.774-5.232-1.279-6.007-6.007a1.091 1.091 0 0 0-2.154 0c-.775 4.729-1.279 5.234-6.01 6.008a1.091 1.091 0 0 0 0 2.154zM10 17.936A4.929 4.929 0 0 0 13.064 21 4.927 4.927 0 0 0 10 24.064 4.93 4.93 0 0 0 6.937 21 4.93 4.93 0 0 0 10 17.936z"></path>
</svg>
